<mxfile host="65bd71144e">
    <diagram id="ciPo3X5teLXdfqjWm5yF" name="Page-1">
        <mxGraphModel dx="4040" dy="1650" grid="1" gridSize="10" guides="1" tooltips="1" connect="1" arrows="1" fold="1" page="1" pageScale="1" pageWidth="850" pageHeight="1100" math="0" shadow="0">
            <root>
                <mxCell id="0"/>
                <mxCell id="1" parent="0"/>
                <mxCell id="563" value="Justin, L&lt;br&gt;TEJ3M&lt;br&gt;4-20&lt;br&gt;&lt;br&gt;&lt;span style=&quot;color: rgba(0, 0, 0, 0); font-family: monospace; font-size: 0px;&quot;&gt;%3CmxGraphModel%3E%3Croot%3E%3CmxCell%20id%3D%220%22%2F%3E%3CmxCell%20id%3D%221%22%20parent%3D%220%22%2F%3E%3CmxCell%20id%3D%222%22%20value%3D%225%20V%22%20style%3D%22text%3BstrokeColor%3Dnone%3Balign%3Dcenter%3BfillColor%3Dnone%3Bhtml%3D1%3BverticalAlign%3Dmiddle%3BwhiteSpace%3Dwrap%3Brounded%3D0%3B%22%20vertex%3D%221%22%20parent%3D%221%22%3E%3CmxGeometry%20x%3D%22550%22%20y%3D%22275%22%20width%3D%2260%22%20height%3D%2230%22%20as%3D%22geometry%22%2F%3E%3C%2FmxCell%3E%3C%2Froot%3E%3C%2FmxGraphModel%&lt;/span&gt;" style="text;strokeColor=none;align=left;fillColor=none;html=1;verticalAlign=middle;whiteSpace=wrap;rounded=0;" parent="1" vertex="1">
                    <mxGeometry x="-1540" y="320" width="60" height="30" as="geometry"/>
                </mxCell>
                <mxCell id="758" value="&lt;div style=&quot;color: rgb(201, 209, 217); font-family: Consolas, &amp;quot;Courier New&amp;quot;, monospace; font-weight: normal; font-size: 14px; line-height: 19px;&quot;&gt;&lt;div style=&quot;&quot;&gt;&lt;span style=&quot;color: rgb(201, 209, 217);&quot;&gt;two compliment truth table&lt;/span&gt;&lt;/div&gt;&lt;div style=&quot;&quot;&gt;&lt;span style=&quot;color: rgb(201, 209, 217);&quot;&gt;| A2| A1 | B2 | &amp;nbsp;B1 | &amp;nbsp;S &amp;nbsp;| Cout | Sum2 | Sum1 | Decimal Equivalent |&lt;/span&gt;&lt;/div&gt;&lt;div style=&quot;&quot;&gt;&lt;span style=&quot;color: rgb(201, 209, 217);&quot;&gt;| 0 | 0 &amp;nbsp;| 0 &amp;nbsp;| &amp;nbsp;0 &amp;nbsp;| &amp;nbsp;0 &amp;nbsp;| &amp;nbsp;0 &amp;nbsp; | &amp;nbsp;0 &amp;nbsp; | &amp;nbsp;0 &amp;nbsp; | &amp;nbsp;0 + 0 = 0 &amp;nbsp; &amp;nbsp; &amp;nbsp; &amp;nbsp; |&lt;/span&gt;&lt;/div&gt;&lt;div style=&quot;&quot;&gt;&lt;span style=&quot;color: rgb(201, 209, 217);&quot;&gt;| 0 | 0 &amp;nbsp;| 0 &amp;nbsp;| &amp;nbsp;1 &amp;nbsp;| &amp;nbsp;0 &amp;nbsp;| &amp;nbsp;0 &amp;nbsp; | &amp;nbsp;0 &amp;nbsp; | &amp;nbsp;1 &amp;nbsp; | &amp;nbsp;0 + 1 = 1 &amp;nbsp; &amp;nbsp; &amp;nbsp; &amp;nbsp; |&lt;/span&gt;&lt;/div&gt;&lt;div style=&quot;&quot;&gt;&lt;span style=&quot;color: rgb(201, 209, 217);&quot;&gt;| 0 | 0 &amp;nbsp;| 1 &amp;nbsp;| &amp;nbsp;0 &amp;nbsp;| &amp;nbsp;0 &amp;nbsp;| &amp;nbsp;0 &amp;nbsp; | &amp;nbsp;1 &amp;nbsp; | &amp;nbsp;0 &amp;nbsp; | &amp;nbsp;0 + -2 = -2 &amp;nbsp; &amp;nbsp; &amp;nbsp; |&lt;/span&gt;&lt;/div&gt;&lt;div style=&quot;&quot;&gt;&lt;span style=&quot;color: rgb(201, 209, 217);&quot;&gt;| 0 | 0 &amp;nbsp;| 1 &amp;nbsp;| &amp;nbsp;1 &amp;nbsp;| &amp;nbsp;0 &amp;nbsp;| &amp;nbsp;0 &amp;nbsp; | &amp;nbsp;1 &amp;nbsp; | &amp;nbsp;1 &amp;nbsp; | &amp;nbsp;0 + -1 = -1 &amp;nbsp; &amp;nbsp; &amp;nbsp; |&lt;/span&gt;&lt;/div&gt;&lt;div style=&quot;&quot;&gt;&lt;span style=&quot;color: rgb(201, 209, 217);&quot;&gt;| 0 | 1 &amp;nbsp;| 0 &amp;nbsp;| &amp;nbsp;0 &amp;nbsp;| &amp;nbsp;0 &amp;nbsp;| &amp;nbsp;0 &amp;nbsp; | &amp;nbsp;0 &amp;nbsp; | &amp;nbsp;1 &amp;nbsp; | &amp;nbsp;1 + 0 = 1 &amp;nbsp; &amp;nbsp; &amp;nbsp; &amp;nbsp; |&lt;/span&gt;&lt;/div&gt;&lt;div style=&quot;&quot;&gt;&lt;span style=&quot;color: rgb(201, 209, 217);&quot;&gt;| 0 | 1 &amp;nbsp;| 0 &amp;nbsp;| &amp;nbsp;1 &amp;nbsp;| &amp;nbsp;0 &amp;nbsp;| &amp;nbsp;0 &amp;nbsp; | &amp;nbsp;1 &amp;nbsp; | &amp;nbsp;0 &amp;nbsp; | &amp;nbsp;1 + 1 = 2 &amp;nbsp; &amp;nbsp; &amp;nbsp; &amp;nbsp; | -&amp;gt; overflow&lt;/span&gt;&lt;/div&gt;&lt;div style=&quot;&quot;&gt;&lt;span style=&quot;color: rgb(201, 209, 217);&quot;&gt;| 0 | 1 &amp;nbsp;| 1 &amp;nbsp;| &amp;nbsp;0 &amp;nbsp;| &amp;nbsp;0 &amp;nbsp;| &amp;nbsp;0 &amp;nbsp; | &amp;nbsp;1 &amp;nbsp; | &amp;nbsp;1 &amp;nbsp; | &amp;nbsp;1 + -2 = -1 &amp;nbsp; &amp;nbsp; &amp;nbsp; |&lt;/span&gt;&lt;/div&gt;&lt;div style=&quot;&quot;&gt;&lt;span style=&quot;color: rgb(201, 209, 217);&quot;&gt;| 0 | 1 &amp;nbsp;| 1 &amp;nbsp;| &amp;nbsp;1 &amp;nbsp;| &amp;nbsp;0 &amp;nbsp;| &amp;nbsp;1 &amp;nbsp; | &amp;nbsp;0 &amp;nbsp; | &amp;nbsp;0 &amp;nbsp; | &amp;nbsp;1 + -1 = 0 &amp;nbsp; &amp;nbsp; &amp;nbsp; &amp;nbsp;|&lt;/span&gt;&lt;/div&gt;&lt;div style=&quot;&quot;&gt;&lt;span style=&quot;color: rgb(201, 209, 217);&quot;&gt;| 1 | 0 &amp;nbsp;| 0 &amp;nbsp;| &amp;nbsp;0 &amp;nbsp;| &amp;nbsp;0 &amp;nbsp;| &amp;nbsp;0 &amp;nbsp; | &amp;nbsp;1 &amp;nbsp; | &amp;nbsp;0 &amp;nbsp; | &amp;nbsp;-2 + 0 = -2 &amp;nbsp; &amp;nbsp; &amp;nbsp; |&lt;/span&gt;&lt;/div&gt;&lt;div style=&quot;&quot;&gt;&lt;span style=&quot;color: rgb(201, 209, 217);&quot;&gt;| 1 | 0 &amp;nbsp;| 0 &amp;nbsp;| &amp;nbsp;1 &amp;nbsp;| &amp;nbsp;0 &amp;nbsp;| &amp;nbsp;0 &amp;nbsp; | &amp;nbsp;1 &amp;nbsp; | &amp;nbsp;1 &amp;nbsp; | &amp;nbsp;-2 + 1 = -1 &amp;nbsp; &amp;nbsp; &amp;nbsp; |&lt;/span&gt;&lt;/div&gt;&lt;div style=&quot;&quot;&gt;&lt;span style=&quot;color: rgb(201, 209, 217);&quot;&gt;| 1 | 0 &amp;nbsp;| 1 &amp;nbsp;| &amp;nbsp;0 &amp;nbsp;| &amp;nbsp;0 &amp;nbsp;| &amp;nbsp;1 &amp;nbsp; | &amp;nbsp;0 &amp;nbsp; | &amp;nbsp;0 &amp;nbsp; | &amp;nbsp;-2 + -2 = 0 &amp;nbsp; &amp;nbsp; &amp;nbsp; |&lt;/span&gt;&lt;/div&gt;&lt;div style=&quot;&quot;&gt;&lt;span style=&quot;color: rgb(201, 209, 217);&quot;&gt;| 1 | 0 &amp;nbsp;| 1 &amp;nbsp;| &amp;nbsp;1 &amp;nbsp;| &amp;nbsp;0 &amp;nbsp;| &amp;nbsp;1 &amp;nbsp; | &amp;nbsp;0 &amp;nbsp; | &amp;nbsp;1 &amp;nbsp; | &amp;nbsp;-2 + -1 = -3 &amp;nbsp; &amp;nbsp; &amp;nbsp;| -&amp;gt; overflow&lt;/span&gt;&lt;/div&gt;&lt;div style=&quot;&quot;&gt;&lt;span style=&quot;color: rgb(201, 209, 217);&quot;&gt;| 1 | 1 &amp;nbsp;| 0 &amp;nbsp;| &amp;nbsp;0 &amp;nbsp;| &amp;nbsp;0 &amp;nbsp;| &amp;nbsp;0 &amp;nbsp; | &amp;nbsp;0 &amp;nbsp; | &amp;nbsp;0 &amp;nbsp; | &amp;nbsp;-1 + 0 = -1 &amp;nbsp; &amp;nbsp; &amp;nbsp; |&lt;/span&gt;&lt;/div&gt;&lt;div style=&quot;&quot;&gt;&lt;span style=&quot;color: rgb(201, 209, 217);&quot;&gt;| 1 | 1 &amp;nbsp;| 0 &amp;nbsp;| &amp;nbsp;1 &amp;nbsp;| &amp;nbsp;0 &amp;nbsp;| &amp;nbsp;1 &amp;nbsp; | &amp;nbsp;1 &amp;nbsp; | &amp;nbsp;1 &amp;nbsp; | &amp;nbsp;-1 + 1 = 0 &amp;nbsp; &amp;nbsp; &amp;nbsp; &amp;nbsp;|&lt;/span&gt;&lt;/div&gt;&lt;div style=&quot;&quot;&gt;&lt;span style=&quot;color: rgb(201, 209, 217);&quot;&gt;| 1 | 1 &amp;nbsp;| 1 &amp;nbsp;| &amp;nbsp;0 &amp;nbsp;| &amp;nbsp;0 &amp;nbsp;| &amp;nbsp;1 &amp;nbsp; | &amp;nbsp;0 &amp;nbsp; | &amp;nbsp;0 &amp;nbsp; | &amp;nbsp;-1 + -2 = -3 &amp;nbsp; &amp;nbsp; &amp;nbsp;| -&amp;gt; overflow&lt;/span&gt;&lt;/div&gt;&lt;div style=&quot;&quot;&gt;&lt;span style=&quot;color: rgb(201, 209, 217);&quot;&gt;| 1 | 1 &amp;nbsp;| 1 &amp;nbsp;| &amp;nbsp;1 &amp;nbsp;| &amp;nbsp;1 &amp;nbsp;| &amp;nbsp;0 &amp;nbsp; | &amp;nbsp;0 &amp;nbsp; | &amp;nbsp;0 &amp;nbsp; | &amp;nbsp;-1 + -1 = -2 &amp;nbsp; &amp;nbsp; &amp;nbsp;|&lt;/span&gt;&lt;/div&gt;&lt;div style=&quot;&quot;&gt;&lt;span style=&quot;color: rgb(201, 209, 217);&quot;&gt;|------------------------------------------------------------------|&lt;/span&gt;&lt;/div&gt;&lt;div style=&quot;&quot;&gt;&lt;span style=&quot;color: rgb(201, 209, 217);&quot;&gt;| 0 | 0 &amp;nbsp;| 0 &amp;nbsp;| &amp;nbsp;0 &amp;nbsp;| &amp;nbsp;1 &amp;nbsp;| &amp;nbsp;0 &amp;nbsp; | &amp;nbsp;0 &amp;nbsp; | &amp;nbsp;0 &amp;nbsp; | &amp;nbsp;0 - 0 = 0 &amp;nbsp; &amp;nbsp; &amp;nbsp; &amp;nbsp; |&lt;/span&gt;&lt;/div&gt;&lt;div style=&quot;&quot;&gt;&lt;span style=&quot;color: rgb(201, 209, 217);&quot;&gt;| 0 | 0 &amp;nbsp;| 0 &amp;nbsp;| &amp;nbsp;1 &amp;nbsp;| &amp;nbsp;1 &amp;nbsp;| &amp;nbsp;1 &amp;nbsp; | &amp;nbsp;1 &amp;nbsp; | &amp;nbsp;1 &amp;nbsp; | &amp;nbsp;0 - 1 = -1 &amp;nbsp; &amp;nbsp; &amp;nbsp; &amp;nbsp;|&lt;/span&gt;&lt;/div&gt;&lt;div style=&quot;&quot;&gt;&lt;span style=&quot;color: rgb(201, 209, 217);&quot;&gt;| 0 | 0 &amp;nbsp;| 1 &amp;nbsp;| &amp;nbsp;0 &amp;nbsp;| &amp;nbsp;1 &amp;nbsp;| &amp;nbsp;1 &amp;nbsp; | &amp;nbsp;1 &amp;nbsp; | &amp;nbsp;0 &amp;nbsp; | &amp;nbsp;0 - -2 = 2 &amp;nbsp; &amp;nbsp; &amp;nbsp; &amp;nbsp;| -&amp;gt; overflow&lt;/span&gt;&lt;/div&gt;&lt;div style=&quot;&quot;&gt;&lt;span style=&quot;color: rgb(201, 209, 217);&quot;&gt;| 0 | 0 &amp;nbsp;| 1 &amp;nbsp;| &amp;nbsp;1 &amp;nbsp;| &amp;nbsp;1 &amp;nbsp;| &amp;nbsp;1 &amp;nbsp; | &amp;nbsp;0 &amp;nbsp; | &amp;nbsp;1 &amp;nbsp; | &amp;nbsp;0 - -1 = 1 &amp;nbsp; &amp;nbsp; &amp;nbsp; &amp;nbsp;|&lt;/span&gt;&lt;/div&gt;&lt;div style=&quot;&quot;&gt;&lt;span style=&quot;color: rgb(201, 209, 217);&quot;&gt;| 0 | 1 &amp;nbsp;| 0 &amp;nbsp;| &amp;nbsp;0 &amp;nbsp;| &amp;nbsp;1 &amp;nbsp;| &amp;nbsp;0 &amp;nbsp; | &amp;nbsp;1 &amp;nbsp; | &amp;nbsp;1 &amp;nbsp; | &amp;nbsp;1 - 0 = 1 &amp;nbsp; &amp;nbsp; &amp;nbsp; &amp;nbsp; |&lt;/span&gt;&lt;/div&gt;&lt;div style=&quot;&quot;&gt;&lt;span style=&quot;color: rgb(201, 209, 217);&quot;&gt;| 0 | 1 &amp;nbsp;| 0 &amp;nbsp;| &amp;nbsp;1 &amp;nbsp;| &amp;nbsp;1 &amp;nbsp;| &amp;nbsp;1 &amp;nbsp; | &amp;nbsp;0 &amp;nbsp; | &amp;nbsp;0 &amp;nbsp; | &amp;nbsp;1 - 1 = 0 &amp;nbsp; &amp;nbsp; &amp;nbsp; &amp;nbsp; |&lt;/span&gt;&lt;/div&gt;&lt;div style=&quot;&quot;&gt;&lt;span style=&quot;color: rgb(201, 209, 217);&quot;&gt;| 0 | 1 &amp;nbsp;| 1 &amp;nbsp;| &amp;nbsp;0 &amp;nbsp;| &amp;nbsp;1 &amp;nbsp;| &amp;nbsp;1 &amp;nbsp; | &amp;nbsp;0 &amp;nbsp; | &amp;nbsp;1 &amp;nbsp; | &amp;nbsp;1 - -2 = 3 &amp;nbsp; &amp;nbsp; &amp;nbsp; &amp;nbsp;| -&amp;gt; overflow&lt;/span&gt;&lt;/div&gt;&lt;div style=&quot;&quot;&gt;&lt;span style=&quot;color: rgb(201, 209, 217);&quot;&gt;| 0 | 1 &amp;nbsp;| 1 &amp;nbsp;| &amp;nbsp;1 &amp;nbsp;| &amp;nbsp;1 &amp;nbsp;| &amp;nbsp;0 &amp;nbsp; | &amp;nbsp;1 &amp;nbsp; | &amp;nbsp;0 &amp;nbsp; | &amp;nbsp;1 - -1 = 2 &amp;nbsp; &amp;nbsp; &amp;nbsp; &amp;nbsp;|&lt;/span&gt;&lt;/div&gt;&lt;div style=&quot;&quot;&gt;&lt;span style=&quot;color: rgb(201, 209, 217);&quot;&gt;| 1 | 0 &amp;nbsp;| 0 &amp;nbsp;| &amp;nbsp;0 &amp;nbsp;| &amp;nbsp;1 &amp;nbsp;| &amp;nbsp;1 &amp;nbsp; | &amp;nbsp;0 &amp;nbsp; | &amp;nbsp;0 &amp;nbsp; | &amp;nbsp;-2 - 0 = -2 &amp;nbsp; &amp;nbsp; &amp;nbsp; |&lt;/span&gt;&lt;/div&gt;&lt;div style=&quot;&quot;&gt;&lt;span style=&quot;color: rgb(201, 209, 217);&quot;&gt;| 1 | 0 &amp;nbsp;| 0 &amp;nbsp;| &amp;nbsp;1 &amp;nbsp;| &amp;nbsp;1 &amp;nbsp;| &amp;nbsp;0 &amp;nbsp; | &amp;nbsp;1 &amp;nbsp; | &amp;nbsp;1 &amp;nbsp; | &amp;nbsp;-2 - 1 = -3 &amp;nbsp; &amp;nbsp; &amp;nbsp; | -&amp;gt; overflow&lt;/span&gt;&lt;/div&gt;&lt;div style=&quot;&quot;&gt;&lt;span style=&quot;color: rgb(201, 209, 217);&quot;&gt;| 1 | 0 &amp;nbsp;| 1 &amp;nbsp;| &amp;nbsp;0 &amp;nbsp;| &amp;nbsp;1 &amp;nbsp;| &amp;nbsp;0 &amp;nbsp; | &amp;nbsp;1 &amp;nbsp; | &amp;nbsp;0 &amp;nbsp; | &amp;nbsp;-2 - -2 = 0 &amp;nbsp; &amp;nbsp; &amp;nbsp; |&lt;/span&gt;&lt;/div&gt;&lt;div style=&quot;&quot;&gt;&lt;span style=&quot;color: rgb(201, 209, 217);&quot;&gt;| 1 | 0 &amp;nbsp;| 1 &amp;nbsp;| &amp;nbsp;1 &amp;nbsp;| &amp;nbsp;1 &amp;nbsp;| &amp;nbsp;0 &amp;nbsp; | &amp;nbsp;1 &amp;nbsp; | &amp;nbsp;1 &amp;nbsp; | &amp;nbsp;-2 - -1 = -1 &amp;nbsp; &amp;nbsp; &amp;nbsp;|&lt;/span&gt;&lt;/div&gt;&lt;div style=&quot;&quot;&gt;&lt;span style=&quot;color: rgb(201, 209, 217);&quot;&gt;| 1 | 1 &amp;nbsp;| 0 &amp;nbsp;| &amp;nbsp;0 &amp;nbsp;| &amp;nbsp;1 &amp;nbsp;| &amp;nbsp;1 &amp;nbsp; | &amp;nbsp;1 &amp;nbsp; | &amp;nbsp;0 &amp;nbsp; | &amp;nbsp;-1 - 0 = -1 &amp;nbsp; &amp;nbsp; &amp;nbsp; |&lt;/span&gt;&lt;/div&gt;&lt;div style=&quot;&quot;&gt;&lt;span style=&quot;color: rgb(201, 209, 217);&quot;&gt;| 1 | 1 &amp;nbsp;| 0 &amp;nbsp;| &amp;nbsp;1 &amp;nbsp;| &amp;nbsp;1 &amp;nbsp;| &amp;nbsp;0 &amp;nbsp; | &amp;nbsp;0 &amp;nbsp; | &amp;nbsp;1 &amp;nbsp; | &amp;nbsp;-1 - 1 = -2 &amp;nbsp; &amp;nbsp; &amp;nbsp; |&lt;/span&gt;&lt;/div&gt;&lt;div style=&quot;&quot;&gt;&lt;span style=&quot;color: rgb(201, 209, 217);&quot;&gt;| 1 | 1 &amp;nbsp;| 1 &amp;nbsp;| &amp;nbsp;0 &amp;nbsp;| &amp;nbsp;1 &amp;nbsp;| &amp;nbsp;0 &amp;nbsp; | &amp;nbsp;1 &amp;nbsp; | &amp;nbsp;0 &amp;nbsp; | &amp;nbsp;-1 - -2 = 1 &amp;nbsp; &amp;nbsp; &amp;nbsp; |&lt;/span&gt;&lt;/div&gt;&lt;div style=&quot;&quot;&gt;&lt;span style=&quot;color: rgb(201, 209, 217);&quot;&gt;| 1 | 1 &amp;nbsp;| 1 &amp;nbsp;| &amp;nbsp;1 &amp;nbsp;| &amp;nbsp;1 &amp;nbsp;| &amp;nbsp;0 &amp;nbsp; | &amp;nbsp;0 &amp;nbsp; | &amp;nbsp;0 &amp;nbsp; | &amp;nbsp;-1 - -1 = 0 &amp;nbsp; &amp;nbsp; &amp;nbsp; |&lt;/span&gt;&lt;/div&gt;&lt;div style=&quot;&quot;&gt;&lt;span style=&quot;color: rgb(201, 209, 217);&quot;&gt;|------------------------------------------------------------------|&lt;/span&gt;&lt;/div&gt;&lt;/div&gt;" style="text;whiteSpace=wrap;html=1;" vertex="1" parent="1">
                    <mxGeometry x="-1540" y="340" width="690" height="1390" as="geometry"/>
                </mxCell>
                <mxCell id="762" style="edgeStyle=none;html=1;exitX=0;exitY=0.5;exitDx=0;exitDy=0;entryX=0;entryY=0.5;entryDx=0;entryDy=0;endArrow=none;endFill=0;" edge="1" parent="1" target="765">
                    <mxGeometry relative="1" as="geometry">
                        <mxPoint x="-840" y="759" as="sourcePoint"/>
                    </mxGeometry>
                </mxCell>
                <mxCell id="763" style="edgeStyle=none;html=1;exitX=0.5;exitY=1;exitDx=0;exitDy=0;endArrow=classic;endFill=1;" edge="1" parent="1" source="765">
                    <mxGeometry relative="1" as="geometry">
                        <mxPoint x="-654.7058823529412" y="889" as="targetPoint"/>
                    </mxGeometry>
                </mxCell>
                <mxCell id="764" style="edgeStyle=none;rounded=0;html=1;exitX=0.75;exitY=0;exitDx=0;exitDy=0;endArrow=classic;endFill=1;entryX=0.75;entryY=0;entryDx=0;entryDy=0;" edge="1" parent="1" target="765">
                    <mxGeometry relative="1" as="geometry">
                        <mxPoint x="-607.6470588235293" y="619.0000000000001" as="sourcePoint"/>
                    </mxGeometry>
                </mxCell>
                <mxCell id="765" value="Full Adder" style="whiteSpace=wrap;html=1;" vertex="1" parent="1">
                    <mxGeometry x="-750" y="709" width="190" height="100" as="geometry"/>
                </mxCell>
                <mxCell id="766" style="edgeStyle=none;html=1;exitX=0;exitY=0.5;exitDx=0;exitDy=0;entryX=1;entryY=0.5;entryDx=0;entryDy=0;endArrow=classic;endFill=1;" edge="1" parent="1" source="770" target="765">
                    <mxGeometry relative="1" as="geometry"/>
                </mxCell>
                <mxCell id="767" style="edgeStyle=none;html=1;exitX=0.5;exitY=1;exitDx=0;exitDy=0;endArrow=classic;endFill=1;" edge="1" parent="1" source="770">
                    <mxGeometry relative="1" as="geometry">
                        <mxPoint x="-374.7058823529412" y="889" as="targetPoint"/>
                    </mxGeometry>
                </mxCell>
                <mxCell id="768" style="edgeStyle=none;html=1;endArrow=classic;endFill=1;entryX=1;entryY=0.5;entryDx=0;entryDy=0;rounded=0;" edge="1" parent="1" target="770">
                    <mxGeometry relative="1" as="geometry">
                        <mxPoint x="-750" y="579.0000000000001" as="sourcePoint"/>
                        <Array as="points">
                            <mxPoint x="-180" y="579"/>
                            <mxPoint x="-210" y="579"/>
                            <mxPoint x="-210" y="759"/>
                        </Array>
                    </mxGeometry>
                </mxCell>
                <mxCell id="769" style="edgeStyle=none;rounded=0;html=1;exitX=0.75;exitY=0;exitDx=0;exitDy=0;endArrow=classic;endFill=1;entryX=0.75;entryY=0;entryDx=0;entryDy=0;" edge="1" parent="1" target="770">
                    <mxGeometry relative="1" as="geometry">
                        <mxPoint x="-327.6470588235293" y="619.0000000000001" as="sourcePoint"/>
                    </mxGeometry>
                </mxCell>
                <mxCell id="770" value="Full Adder" style="whiteSpace=wrap;html=1;" vertex="1" parent="1">
                    <mxGeometry x="-470" y="709" width="190" height="100" as="geometry"/>
                </mxCell>
                <mxCell id="771" value="S1" style="text;strokeColor=none;align=center;fillColor=none;html=1;verticalAlign=middle;whiteSpace=wrap;rounded=0;" vertex="1" parent="1">
                    <mxGeometry x="-685" y="889" width="60" height="30" as="geometry"/>
                </mxCell>
                <mxCell id="772" value="Cin&amp;nbsp; &amp;nbsp; &amp;nbsp; &amp;nbsp; &amp;nbsp; &amp;nbsp;Cout" style="text;strokeColor=none;align=center;fillColor=none;html=1;verticalAlign=middle;whiteSpace=wrap;rounded=0;" vertex="1" parent="1">
                    <mxGeometry x="-570" y="729" width="110" height="30" as="geometry"/>
                </mxCell>
                <mxCell id="773" value="Cout" style="text;strokeColor=none;align=center;fillColor=none;html=1;verticalAlign=middle;whiteSpace=wrap;rounded=0;" vertex="1" parent="1">
                    <mxGeometry x="-850" y="729" width="110" height="30" as="geometry"/>
                </mxCell>
                <mxCell id="774" value="S0" style="text;strokeColor=none;align=center;fillColor=none;html=1;verticalAlign=middle;whiteSpace=wrap;rounded=0;" vertex="1" parent="1">
                    <mxGeometry x="-405" y="889" width="60" height="30" as="geometry"/>
                </mxCell>
                <mxCell id="775" value="Cin" style="text;strokeColor=none;align=center;fillColor=none;html=1;verticalAlign=middle;whiteSpace=wrap;rounded=0;" vertex="1" parent="1">
                    <mxGeometry x="-300" y="729" width="110" height="30" as="geometry"/>
                </mxCell>
                <mxCell id="776" value="A1" style="text;strokeColor=none;align=center;fillColor=none;html=1;verticalAlign=middle;whiteSpace=wrap;rounded=0;" vertex="1" parent="1">
                    <mxGeometry x="-640" y="589" width="60" height="30" as="geometry"/>
                </mxCell>
                <mxCell id="777" style="edgeStyle=none;rounded=0;html=1;exitX=1;exitY=0.5;exitDx=0;exitDy=0;exitPerimeter=0;endArrow=classic;endFill=1;entryX=0.25;entryY=0;entryDx=0;entryDy=0;" edge="1" parent="1" source="779" target="765">
                    <mxGeometry relative="1" as="geometry">
                        <mxPoint x="-690" y="708" as="targetPoint"/>
                    </mxGeometry>
                </mxCell>
                <mxCell id="778" style="edgeStyle=none;rounded=0;html=1;exitX=0;exitY=0.75;exitDx=0;exitDy=0;exitPerimeter=0;endArrow=classic;endFill=1;" edge="1" parent="1" source="779">
                    <mxGeometry relative="1" as="geometry">
                        <mxPoint x="-718.2352941176471" y="539.0000000000001" as="targetPoint"/>
                    </mxGeometry>
                </mxCell>
                <mxCell id="779" value="" style="verticalLabelPosition=bottom;shadow=0;dashed=0;align=center;html=1;verticalAlign=top;shape=mxgraph.electrical.logic_gates.logic_gate;operation=xor;rotation=90;" vertex="1" parent="1">
                    <mxGeometry x="-753" y="599" width="100" height="60" as="geometry"/>
                </mxCell>
                <mxCell id="780" value="B1" style="text;strokeColor=none;align=center;fillColor=none;html=1;verticalAlign=middle;whiteSpace=wrap;rounded=0;" vertex="1" parent="1">
                    <mxGeometry x="-747" y="510" width="60" height="30" as="geometry"/>
                </mxCell>
                <mxCell id="781" style="edgeStyle=none;rounded=0;html=1;exitX=1;exitY=0.5;exitDx=0;exitDy=0;exitPerimeter=0;entryX=0.25;entryY=0;entryDx=0;entryDy=0;endArrow=classic;endFill=1;" edge="1" parent="1" source="783" target="770">
                    <mxGeometry relative="1" as="geometry"/>
                </mxCell>
                <mxCell id="782" style="edgeStyle=none;rounded=0;html=1;exitX=0;exitY=0.75;exitDx=0;exitDy=0;exitPerimeter=0;endArrow=classic;endFill=1;" edge="1" parent="1" source="783">
                    <mxGeometry relative="1" as="geometry">
                        <mxPoint x="-438.2352941176471" y="539.0000000000001" as="targetPoint"/>
                    </mxGeometry>
                </mxCell>
                <mxCell id="783" value="" style="verticalLabelPosition=bottom;shadow=0;dashed=0;align=center;html=1;verticalAlign=top;shape=mxgraph.electrical.logic_gates.logic_gate;operation=xor;rotation=90;" vertex="1" parent="1">
                    <mxGeometry x="-473" y="599" width="100" height="60" as="geometry"/>
                </mxCell>
                <mxCell id="784" value="B0" style="text;strokeColor=none;align=center;fillColor=none;html=1;verticalAlign=middle;whiteSpace=wrap;rounded=0;" vertex="1" parent="1">
                    <mxGeometry x="-469" y="510" width="60" height="30" as="geometry"/>
                </mxCell>
                <mxCell id="785" value="A0" style="text;strokeColor=none;align=center;fillColor=none;html=1;verticalAlign=middle;whiteSpace=wrap;rounded=0;" vertex="1" parent="1">
                    <mxGeometry x="-358" y="589" width="60" height="30" as="geometry"/>
                </mxCell>
                <mxCell id="786" value="M" style="text;strokeColor=none;align=center;fillColor=none;html=1;verticalAlign=middle;whiteSpace=wrap;rounded=0;" vertex="1" parent="1">
                    <mxGeometry x="-190" y="565" width="60" height="30" as="geometry"/>
                </mxCell>
            </root>
        </mxGraphModel>
    </diagram>
</mxfile>